# MagicaVoxel @ ephtracy

# material
mtllib prop-tree2.mtl
usemtl palette

# normals
vn -1 0 0
vn 1 0 0
vn 0 0 1
vn 0 0 -1
vn 0 -1 0
vn 0 1 0

# texcoords
vt 0.271484 0.5
vt 0.439453 0.5
vt 0.443359 0.5
vt 0.572266 0.5
vt 0.576172 0.5
vt 0.587891 0.5
vt 0.591797 0.5

# verts
v -14 10 14
v -14 10 -14
v -14 16 14
v -14 16 -14
v -12 16 12
v -12 16 -12
v -12 22 12
v -12 22 -12
v -10 22 10
v -10 22 -10
v -10 28 10
v -10 28 -10
v -8 28 8
v -8 28 -8
v -8 34 8
v -8 34 -8
v -6 0 6
v -6 0 -6
v -6 10 6
v -6 10 -6
v -6 34 6
v -6 34 -6
v -6 40 6
v -6 40 -6
v 6 0 6
v 6 0 -6
v 6 10 6
v 6 10 -6
v 6 34 6
v 6 34 -6
v 6 40 6
v 6 40 -6
v 8 28 8
v 8 28 -8
v 8 34 8
v 8 34 -8
v 10 22 10
v 10 22 -10
v 10 28 10
v 10 28 -10
v 12 16 12
v 12 16 -12
v 12 22 12
v 12 22 -12
v 14 10 14
v 14 10 -14
v 14 16 14
v 14 16 -14
v -14 10 14
v -14 16 14
v 14 10 14
v 14 16 14
v -12 16 12
v -12 22 12
v 12 16 12
v 12 22 12
v -10 22 10
v -10 28 10
v 10 22 10
v 10 28 10
v -8 28 8
v -8 34 8
v 8 28 8
v 8 34 8
v -6 0 6
v -6 10 6
v -6 34 6
v -6 40 6
v 6 0 6
v 6 10 6
v 6 34 6
v 6 40 6
v -6 0 -6
v -6 10 -6
v -6 34 -6
v -6 40 -6
v 6 0 -6
v 6 10 -6
v 6 34 -6
v 6 40 -6
v -8 28 -8
v -8 34 -8
v 8 28 -8
v 8 34 -8
v -10 22 -10
v -10 28 -10
v 10 22 -10
v 10 28 -10
v -12 16 -12
v -12 22 -12
v 12 16 -12
v 12 22 -12
v -14 10 -14
v -14 16 -14
v 14 10 -14
v 14 16 -14
v -6 0 6
v 6 0 6
v -5 0 5
v 5 0 5
v -5 0 -5
v 5 0 -5
v -6 0 -6
v 6 0 -6
v -14 10 14
v 14 10 14
v -13 10 13
v 13 10 13
v -12 10 12
v 12 10 12
v -6 10 6
v 6 10 6
v -6 10 -6
v 6 10 -6
v -12 10 -12
v 12 10 -12
v -13 10 -13
v 13 10 -13
v -14 10 -14
v 14 10 -14
v -14 16 14
v 14 16 14
v -12 16 12
v 12 16 12
v -12 16 -12
v 12 16 -12
v -14 16 -14
v 14 16 -14
v -12 22 12
v 12 22 12
v -10 22 10
v 10 22 10
v -10 22 -10
v 10 22 -10
v -12 22 -12
v 12 22 -12
v -10 28 10
v 10 28 10
v -8 28 8
v 8 28 8
v -8 28 -8
v 8 28 -8
v -10 28 -10
v 10 28 -10
v -8 34 8
v 8 34 8
v -6 34 6
v 6 34 6
v -6 34 -6
v 6 34 -6
v -8 34 -8
v 8 34 -8
v -6 40 6
v 6 40 6
v -6 40 -6
v 6 40 -6

# faces
f 3/4/1 2/4/1 1/4/1
f 4/4/1 2/4/1 3/4/1
f 7/5/1 6/5/1 5/5/1
f 8/5/1 6/5/1 7/5/1
f 11/4/1 10/4/1 9/4/1
f 12/4/1 10/4/1 11/4/1
f 15/5/1 14/5/1 13/5/1
f 16/5/1 14/5/1 15/5/1
f 19/6/1 18/6/1 17/6/1
f 20/6/1 18/6/1 19/6/1
f 23/4/1 22/4/1 21/4/1
f 24/4/1 22/4/1 23/4/1
f 25/6/2 26/6/2 27/6/2
f 27/6/2 26/6/2 28/6/2
f 29/4/2 30/4/2 31/4/2
f 31/4/2 30/4/2 32/4/2
f 33/5/2 34/5/2 35/5/2
f 35/5/2 34/5/2 36/5/2
f 37/4/2 38/4/2 39/4/2
f 39/4/2 38/4/2 40/4/2
f 41/5/2 42/5/2 43/5/2
f 43/5/2 42/5/2 44/5/2
f 45/4/2 46/4/2 47/4/2
f 47/4/2 46/4/2 48/4/2
f 51/4/3 50/4/3 49/4/3
f 52/4/3 50/4/3 51/4/3
f 55/5/3 54/5/3 53/5/3
f 56/5/3 54/5/3 55/5/3
f 59/4/3 58/4/3 57/4/3
f 60/4/3 58/4/3 59/4/3
f 63/5/3 62/5/3 61/5/3
f 64/5/3 62/5/3 63/5/3
f 69/6/3 66/6/3 65/6/3
f 70/6/3 66/6/3 69/6/3
f 71/4/3 68/4/3 67/4/3
f 72/4/3 68/4/3 71/4/3
f 73/6/4 74/6/4 77/6/4
f 77/6/4 74/6/4 78/6/4
f 75/4/4 76/4/4 79/4/4
f 79/4/4 76/4/4 80/4/4
f 81/5/4 82/5/4 83/5/4
f 83/5/4 82/5/4 84/5/4
f 85/4/4 86/4/4 87/4/4
f 87/4/4 86/4/4 88/4/4
f 89/5/4 90/5/4 91/5/4
f 91/5/4 90/5/4 92/5/4
f 93/4/4 94/4/4 95/4/4
f 95/4/4 94/4/4 96/4/4
f 99/6/5 98/6/5 97/6/5
f 100/6/5 98/6/5 99/6/5
f 101/6/5 99/6/5 97/6/5
f 101/1/5 100/1/5 99/1/5
f 102/6/5 98/6/5 100/6/5
f 102/1/5 100/1/5 101/1/5
f 103/6/5 101/6/5 97/6/5
f 103/6/5 102/6/5 101/6/5
f 104/6/5 98/6/5 102/6/5
f 104/6/5 102/6/5 103/6/5
f 107/4/5 106/4/5 105/4/5
f 108/4/5 106/4/5 107/4/5
f 109/2/5 108/2/5 107/2/5
f 110/2/5 108/2/5 109/2/5
f 111/7/5 110/7/5 109/7/5
f 112/7/5 110/7/5 111/7/5
f 113/7/5 111/7/5 109/7/5
f 114/7/5 110/7/5 112/7/5
f 115/2/5 109/2/5 107/2/5
f 115/7/5 114/7/5 113/7/5
f 115/7/5 113/7/5 109/7/5
f 116/7/5 110/7/5 114/7/5
f 116/7/5 114/7/5 115/7/5
f 116/2/5 108/2/5 110/2/5
f 117/4/5 107/4/5 105/4/5
f 117/2/5 115/2/5 107/2/5
f 117/2/5 116/2/5 115/2/5
f 118/2/5 108/2/5 116/2/5
f 118/2/5 116/2/5 117/2/5
f 118/4/5 106/4/5 108/4/5
f 119/4/5 117/4/5 105/4/5
f 119/4/5 118/4/5 117/4/5
f 120/4/5 106/4/5 118/4/5
f 120/4/5 118/4/5 119/4/5
f 121/4/6 122/4/6 123/4/6
f 123/4/6 122/4/6 124/4/6
f 121/4/6 123/4/6 125/4/6
f 124/4/6 122/4/6 126/4/6
f 121/4/6 125/4/6 127/4/6
f 125/4/6 126/4/6 127/4/6
f 126/4/6 122/4/6 128/4/6
f 127/4/6 126/4/6 128/4/6
f 129/5/6 130/5/6 131/5/6
f 131/5/6 130/5/6 132/5/6
f 129/5/6 131/5/6 133/5/6
f 132/5/6 130/5/6 134/5/6
f 129/5/6 133/5/6 135/5/6
f 133/5/6 134/5/6 135/5/6
f 134/5/6 130/5/6 136/5/6
f 135/5/6 134/5/6 136/5/6
f 137/4/6 138/4/6 139/4/6
f 139/4/6 138/4/6 140/4/6
f 137/4/6 139/4/6 141/4/6
f 140/4/6 138/4/6 142/4/6
f 137/4/6 141/4/6 143/4/6
f 141/4/6 142/4/6 143/4/6
f 142/4/6 138/4/6 144/4/6
f 143/4/6 142/4/6 144/4/6
f 145/5/6 146/5/6 147/5/6
f 147/5/6 146/5/6 148/5/6
f 145/5/6 147/5/6 149/5/6
f 148/5/6 146/5/6 150/5/6
f 145/5/6 149/5/6 151/5/6
f 149/5/6 150/5/6 151/5/6
f 150/5/6 146/5/6 152/5/6
f 151/5/6 150/5/6 152/5/6
f 153/4/6 154/4/6 155/4/6
f 155/4/6 154/4/6 156/4/6
