# MagicaVoxel @ ephtracy

# material
mtllib prop-house1.mtl
usemtl palette

# normals
vn -1 0 0
vn 1 0 0
vn 0 0 1
vn 0 0 -1
vn 0 -1 0
vn 0 1 0

# texcoords
vt 0.482422 0.5
vt 0.626953 0.5
vt 0.630859 0.5
vt 0.634766 0.5
vt 0.638672 0.5

# verts
v -18 0 4
v -18 0 -4
v -18 26 4
v -18 26 -4
v -16 12 14
v -16 12 4
v -16 12 -4
v -16 12 -14
v -16 14 14
v -16 14 4
v -16 14 -4
v -16 14 -14
v -16 24 14
v -16 24 4
v -16 24 -4
v -16 24 -14
v -16 26 14
v -16 26 4
v -16 26 -4
v -16 26 -14
v -14 0 12
v -14 0 4
v -14 0 -4
v -14 0 -12
v -14 12 12
v -14 12 4
v -14 12 -4
v -14 12 -12
v -14 14 12
v -14 14 4
v -14 14 -4
v -14 14 -12
v -14 24 12
v -14 24 4
v -14 24 -4
v -14 24 -12
v -14 26 12
v -14 26 -12
v -14 28 12
v -14 28 -12
v -12 28 12
v -12 28 -12
v -12 30 12
v -12 30 -12
v -10 30 12
v -10 30 -12
v -10 32 12
v -10 32 -12
v -6 0 14
v -6 0 12
v -6 0 -12
v -6 0 -14
v -6 12 14
v -6 12 12
v -6 12 -12
v -6 12 -14
v -4 14 14
v -4 14 12
v -4 14 -12
v -4 14 -14
v -4 24 14
v -4 24 12
v -4 24 -12
v -4 24 -14
v 4 0 14
v 4 0 12
v 4 0 -12
v 4 0 -14
v 4 12 14
v 4 12 12
v 4 12 -12
v 4 12 -14
v -4 0 14
v -4 0 12
v -4 0 -12
v -4 0 -14
v -4 12 14
v -4 12 12
v -4 12 -12
v -4 12 -14
v 4 14 14
v 4 14 12
v 4 14 -12
v 4 14 -14
v 4 24 14
v 4 24 12
v 4 24 -12
v 4 24 -14
v 6 0 14
v 6 0 12
v 6 0 -12
v 6 0 -14
v 6 12 14
v 6 12 12
v 6 12 -12
v 6 12 -14
v 10 30 12
v 10 30 -12
v 10 32 12
v 10 32 -12
v 12 28 12
v 12 28 -12
v 12 30 12
v 12 30 -12
v 14 0 12
v 14 0 4
v 14 0 -4
v 14 0 -12
v 14 12 12
v 14 12 4
v 14 12 -4
v 14 12 -12
v 14 14 12
v 14 14 4
v 14 14 -4
v 14 14 -12
v 14 24 12
v 14 24 4
v 14 24 -4
v 14 24 -12
v 14 26 12
v 14 26 -12
v 14 28 12
v 14 28 -12
v 16 12 14
v 16 12 4
v 16 12 -4
v 16 12 -14
v 16 14 14
v 16 14 4
v 16 14 -4
v 16 14 -14
v 16 24 14
v 16 24 4
v 16 24 -4
v 16 24 -14
v 16 26 14
v 16 26 4
v 16 26 -4
v 16 26 -14
v 18 0 4
v 18 0 -4
v 18 26 4
v 18 26 -4
v -16 12 14
v -16 14 14
v -16 24 14
v -16 26 14
v -6 0 14
v -6 12 14
v -4 0 14
v -4 12 14
v -4 14 14
v -4 24 14
v 4 0 14
v 4 12 14
v 4 14 14
v 4 24 14
v 6 0 14
v 6 12 14
v 16 12 14
v 16 14 14
v 16 24 14
v 16 26 14
v -14 0 12
v -14 12 12
v -14 14 12
v -14 24 12
v -14 26 12
v -14 28 12
v -12 4 12
v -12 10 12
v -12 28 12
v -12 30 12
v -10 16 12
v -10 22 12
v -10 30 12
v -10 32 12
v -8 4 12
v -8 10 12
v -6 0 12
v -6 12 12
v -6 16 12
v -6 22 12
v -4 0 12
v -4 12 12
v -4 14 12
v -4 24 12
v -2 0 12
v -2 10 12
v 2 0 12
v 2 10 12
v 4 0 12
v 4 12 12
v 4 14 12
v 4 24 12
v 6 0 12
v 6 12 12
v 6 16 12
v 6 22 12
v 8 4 12
v 8 10 12
v 10 16 12
v 10 22 12
v 10 30 12
v 10 32 12
v 12 4 12
v 12 10 12
v 12 28 12
v 12 30 12
v 14 0 12
v 14 12 12
v 14 14 12
v 14 24 12
v 14 26 12
v 14 28 12
v -18 0 4
v -18 26 4
v -16 12 4
v -16 14 4
v -16 24 4
v -16 26 4
v -14 0 4
v -14 12 4
v -14 14 4
v -14 24 4
v 14 0 4
v 14 12 4
v 14 14 4
v 14 24 4
v 16 12 4
v 16 14 4
v 16 24 4
v 16 26 4
v 18 0 4
v 18 26 4
v -18 0 -4
v -18 26 -4
v -16 12 -4
v -16 14 -4
v -16 24 -4
v -16 26 -4
v -14 0 -4
v -14 12 -4
v -14 14 -4
v -14 24 -4
v 14 0 -4
v 14 12 -4
v 14 14 -4
v 14 24 -4
v 16 12 -4
v 16 14 -4
v 16 24 -4
v 16 26 -4
v 18 0 -4
v 18 26 -4
v -14 0 -12
v -14 12 -12
v -14 14 -12
v -14 24 -12
v -14 26 -12
v -14 28 -12
v -12 4 -12
v -12 10 -12
v -12 28 -12
v -12 30 -12
v -10 16 -12
v -10 22 -12
v -10 30 -12
v -10 32 -12
v -8 4 -12
v -8 10 -12
v -6 0 -12
v -6 12 -12
v -6 16 -12
v -6 22 -12
v -4 0 -12
v -4 12 -12
v -4 14 -12
v -4 24 -12
v -2 0 -12
v -2 10 -12
v 2 0 -12
v 2 10 -12
v 4 0 -12
v 4 12 -12
v 4 14 -12
v 4 24 -12
v 6 0 -12
v 6 12 -12
v 6 16 -12
v 6 22 -12
v 8 4 -12
v 8 10 -12
v 10 16 -12
v 10 22 -12
v 10 30 -12
v 10 32 -12
v 12 4 -12
v 12 10 -12
v 12 28 -12
v 12 30 -12
v 14 0 -12
v 14 12 -12
v 14 14 -12
v 14 24 -12
v 14 26 -12
v 14 28 -12
v -16 12 -14
v -16 14 -14
v -16 24 -14
v -16 26 -14
v -6 0 -14
v -6 12 -14
v -4 0 -14
v -4 12 -14
v -4 14 -14
v -4 24 -14
v 4 0 -14
v 4 12 -14
v 4 14 -14
v 4 24 -14
v 6 0 -14
v 6 12 -14
v 16 12 -14
v 16 14 -14
v 16 24 -14
v 16 26 -14
v -6 0 14
v -4 0 14
v 4 0 14
v 6 0 14
v -14 0 12
v -6 0 12
v -4 0 12
v -2 0 12
v 2 0 12
v 4 0 12
v 6 0 12
v 14 0 12
v -4 0 10
v -2 0 10
v 2 0 10
v 4 0 10
v -18 0 4
v -14 0 4
v 14 0 4
v 18 0 4
v -18 0 -4
v -14 0 -4
v 14 0 -4
v 18 0 -4
v -4 0 -10
v -2 0 -10
v 2 0 -10
v 4 0 -10
v -14 0 -12
v -6 0 -12
v -4 0 -12
v -2 0 -12
v 2 0 -12
v 4 0 -12
v 6 0 -12
v 14 0 -12
v -6 0 -14
v -4 0 -14
v 4 0 -14
v 6 0 -14
v -16 12 14
v -6 12 14
v -4 12 14
v 4 12 14
v 6 12 14
v 16 12 14
v -14 12 12
v -6 12 12
v -4 12 12
v 4 12 12
v 6 12 12
v 14 12 12
v -16 12 4
v -14 12 4
v 14 12 4
v 16 12 4
v -16 12 -4
v -14 12 -4
v 14 12 -4
v 16 12 -4
v -14 12 -12
v -6 12 -12
v -4 12 -12
v 4 12 -12
v 6 12 -12
v 14 12 -12
v -16 12 -14
v -6 12 -14
v -4 12 -14
v 4 12 -14
v 6 12 -14
v 16 12 -14
v -16 24 14
v -4 24 14
v 4 24 14
v 16 24 14
v -14 24 12
v -4 24 12
v 4 24 12
v 14 24 12
v -16 24 4
v -14 24 4
v 14 24 4
v 16 24 4
v -16 24 -4
v -14 24 -4
v 14 24 -4
v 16 24 -4
v -14 24 -12
v -4 24 -12
v 4 24 -12
v 14 24 -12
v -16 24 -14
v -4 24 -14
v 4 24 -14
v 16 24 -14
v -16 14 14
v -4 14 14
v 4 14 14
v 16 14 14
v -14 14 12
v -4 14 12
v 4 14 12
v 14 14 12
v -16 14 4
v -14 14 4
v 14 14 4
v 16 14 4
v -16 14 -4
v -14 14 -4
v 14 14 -4
v 16 14 -4
v -14 14 -12
v -4 14 -12
v 4 14 -12
v 14 14 -12
v -16 14 -14
v -4 14 -14
v 4 14 -14
v 16 14 -14
v -16 26 14
v 16 26 14
v -14 26 12
v 14 26 12
v -18 26 4
v -16 26 4
v 16 26 4
v 18 26 4
v -18 26 -4
v -16 26 -4
v 16 26 -4
v 18 26 -4
v -14 26 -12
v 14 26 -12
v -16 26 -14
v 16 26 -14
v -14 28 12
v -12 28 12
v 12 28 12
v 14 28 12
v -14 28 -12
v -12 28 -12
v 12 28 -12
v 14 28 -12
v -12 30 12
v -10 30 12
v 10 30 12
v 12 30 12
v -12 30 -12
v -10 30 -12
v 10 30 -12
v 12 30 -12
v -10 32 12
v 10 32 12
v -10 32 -12
v 10 32 -12

# faces
f 3/3/1 2/3/1 1/3/1
f 4/3/1 2/3/1 3/3/1
f 9/3/1 6/3/1 5/3/1
f 10/3/1 6/3/1 9/3/1
f 11/3/1 8/3/1 7/3/1
f 12/3/1 8/3/1 11/3/1
f 17/3/1 14/3/1 13/3/1
f 18/3/1 14/3/1 17/3/1
f 19/3/1 16/3/1 15/3/1
f 20/3/1 16/3/1 19/3/1
f 25/4/1 22/4/1 21/4/1
f 26/4/1 22/4/1 25/4/1
f 27/4/1 24/4/1 23/4/1
f 28/4/1 24/4/1 27/4/1
f 33/4/1 30/4/1 29/4/1
f 34/4/1 30/4/1 33/4/1
f 35/4/1 32/4/1 31/4/1
f 36/4/1 32/4/1 35/4/1
f 39/5/1 38/5/1 37/5/1
f 40/5/1 38/5/1 39/5/1
f 43/5/1 42/5/1 41/5/1
f 44/5/1 42/5/1 43/5/1
f 47/5/1 46/5/1 45/5/1
f 48/5/1 46/5/1 47/5/1
f 53/3/1 50/3/1 49/3/1
f 54/3/1 50/3/1 53/3/1
f 55/3/1 52/3/1 51/3/1
f 56/3/1 52/3/1 55/3/1
f 61/3/1 58/3/1 57/3/1
f 62/3/1 58/3/1 61/3/1
f 63/3/1 60/3/1 59/3/1
f 64/3/1 60/3/1 63/3/1
f 69/3/1 66/3/1 65/3/1
f 70/3/1 66/3/1 69/3/1
f 71/3/1 68/3/1 67/3/1
f 72/3/1 68/3/1 71/3/1
f 73/3/2 74/3/2 77/3/2
f 77/3/2 74/3/2 78/3/2
f 75/3/2 76/3/2 79/3/2
f 79/3/2 76/3/2 80/3/2
f 81/3/2 82/3/2 85/3/2
f 85/3/2 82/3/2 86/3/2
f 83/3/2 84/3/2 87/3/2
f 87/3/2 84/3/2 88/3/2
f 89/3/2 90/3/2 93/3/2
f 93/3/2 90/3/2 94/3/2
f 91/3/2 92/3/2 95/3/2
f 95/3/2 92/3/2 96/3/2
f 97/5/2 98/5/2 99/5/2
f 99/5/2 98/5/2 100/5/2
f 101/5/2 102/5/2 103/5/2
f 103/5/2 102/5/2 104/5/2
f 105/4/2 106/4/2 109/4/2
f 109/4/2 106/4/2 110/4/2
f 107/4/2 108/4/2 111/4/2
f 111/4/2 108/4/2 112/4/2
f 113/4/2 114/4/2 117/4/2
f 117/4/2 114/4/2 118/4/2
f 115/4/2 116/4/2 119/4/2
f 119/4/2 116/4/2 120/4/2
f 121/5/2 122/5/2 123/5/2
f 123/5/2 122/5/2 124/5/2
f 125/3/2 126/3/2 129/3/2
f 129/3/2 126/3/2 130/3/2
f 127/3/2 128/3/2 131/3/2
f 131/3/2 128/3/2 132/3/2
f 133/3/2 134/3/2 137/3/2
f 137/3/2 134/3/2 138/3/2
f 135/3/2 136/3/2 139/3/2
f 139/3/2 136/3/2 140/3/2
f 141/3/2 142/3/2 143/3/2
f 143/3/2 142/3/2 144/3/2
f 150/3/3 146/3/3 145/3/3
f 151/3/3 150/3/3 149/3/3
f 152/3/3 146/3/3 150/3/3
f 152/3/3 150/3/3 151/3/3
f 153/3/3 146/3/3 152/3/3
f 154/3/3 148/3/3 147/3/3
f 156/3/3 153/3/3 152/3/3
f 156/3/3 154/3/3 153/3/3
f 157/3/3 154/3/3 156/3/3
f 158/3/3 148/3/3 154/3/3
f 158/3/3 154/3/3 157/3/3
f 159/3/3 157/3/3 156/3/3
f 159/3/3 156/3/3 155/3/3
f 160/3/3 157/3/3 159/3/3
f 161/3/3 157/3/3 160/3/3
f 162/3/3 157/3/3 161/3/3
f 163/3/3 148/3/3 158/3/3
f 164/3/3 148/3/3 163/3/3
f 171/4/3 166/4/3 165/4/3
f 172/4/3 166/4/3 171/4/3
f 173/5/3 170/5/3 169/5/3
f 175/4/3 168/4/3 167/4/3
f 176/4/3 168/4/3 175/4/3
f 177/5/3 174/5/3 173/5/3
f 179/4/3 171/4/3 165/4/3
f 179/1/3 172/1/3 171/1/3
f 180/4/3 166/4/3 172/4/3
f 180/1/3 172/1/3 179/1/3
f 181/4/3 179/4/3 165/4/3
f 181/4/3 180/4/3 179/4/3
f 182/4/3 166/4/3 180/4/3
f 182/4/3 180/4/3 181/4/3
f 183/4/3 175/4/3 167/4/3
f 183/1/3 176/1/3 175/1/3
f 184/4/3 168/4/3 176/4/3
f 184/1/3 176/1/3 183/1/3
f 187/4/3 183/4/3 167/4/3
f 187/4/3 184/4/3 183/4/3
f 188/4/3 168/4/3 184/4/3
f 188/4/3 184/4/3 187/4/3
f 189/2/3 186/2/3 185/2/3
f 190/2/3 186/2/3 189/2/3
f 191/5/3 190/5/3 189/5/3
f 192/2/3 186/2/3 190/2/3
f 192/5/3 190/5/3 191/5/3
f 193/2/3 192/2/3 191/2/3
f 194/2/3 186/2/3 192/2/3
f 194/2/3 192/2/3 193/2/3
f 199/4/3 196/4/3 195/4/3
f 200/4/3 196/4/3 199/4/3
f 201/4/3 198/4/3 197/4/3
f 202/4/3 198/4/3 201/4/3
f 203/4/3 199/4/3 195/4/3
f 203/1/3 200/1/3 199/1/3
f 204/4/3 196/4/3 200/4/3
f 204/1/3 200/1/3 203/1/3
f 205/5/3 178/5/3 177/5/3
f 205/5/3 177/5/3 173/5/3
f 206/5/3 178/5/3 205/5/3
f 207/4/3 201/4/3 197/4/3
f 207/1/3 202/1/3 201/1/3
f 208/4/3 198/4/3 202/4/3
f 208/1/3 202/1/3 207/1/3
f 209/5/3 173/5/3 169/5/3
f 209/5/3 205/5/3 173/5/3
f 210/5/3 205/5/3 209/5/3
f 211/4/3 207/4/3 197/4/3
f 211/4/3 208/4/3 207/4/3
f 212/4/3 198/4/3 208/4/3
f 212/4/3 208/4/3 211/4/3
f 213/4/3 204/4/3 203/4/3
f 213/4/3 203/4/3 195/4/3
f 214/4/3 196/4/3 204/4/3
f 214/4/3 204/4/3 213/4/3
f 215/5/3 209/5/3 169/5/3
f 216/5/3 209/5/3 215/5/3
f 219/3/3 218/3/3 217/3/3
f 220/3/3 218/3/3 219/3/3
f 221/3/3 218/3/3 220/3/3
f 222/3/3 218/3/3 221/3/3
f 223/3/3 219/3/3 217/3/3
f 224/3/3 219/3/3 223/3/3
f 225/3/3 221/3/3 220/3/3
f 226/3/3 221/3/3 225/3/3
f 231/3/3 228/3/3 227/3/3
f 232/3/3 230/3/3 229/3/3
f 233/3/3 230/3/3 232/3/3
f 235/3/3 233/3/3 232/3/3
f 235/3/3 234/3/3 233/3/3
f 235/3/3 232/3/3 231/3/3
f 235/3/3 231/3/3 227/3/3
f 236/3/3 234/3/3 235/3/3
f 237/3/4 238/3/4 239/3/4
f 239/3/4 238/3/4 240/3/4
f 240/3/4 238/3/4 241/3/4
f 241/3/4 238/3/4 242/3/4
f 237/3/4 239/3/4 243/3/4
f 243/3/4 239/3/4 244/3/4
f 240/3/4 241/3/4 245/3/4
f 245/3/4 241/3/4 246/3/4
f 247/3/4 248/3/4 251/3/4
f 249/3/4 250/3/4 252/3/4
f 252/3/4 250/3/4 253/3/4
f 252/3/4 253/3/4 255/3/4
f 253/3/4 254/3/4 255/3/4
f 251/3/4 252/3/4 255/3/4
f 247/3/4 251/3/4 255/3/4
f 255/3/4 254/3/4 256/3/4
f 257/4/4 258/4/4 263/4/4
f 263/4/4 258/4/4 264/4/4
f 261/5/4 262/5/4 265/5/4
f 259/4/4 260/4/4 267/4/4
f 267/4/4 260/4/4 268/4/4
f 265/5/4 266/5/4 269/5/4
f 257/4/4 263/4/4 271/4/4
f 263/1/4 264/1/4 271/1/4
f 264/4/4 258/4/4 272/4/4
f 271/1/4 264/1/4 272/1/4
f 257/4/4 271/4/4 273/4/4
f 271/4/4 272/4/4 273/4/4
f 272/4/4 258/4/4 274/4/4
f 273/4/4 272/4/4 274/4/4
f 259/4/4 267/4/4 275/4/4
f 267/1/4 268/1/4 275/1/4
f 268/4/4 260/4/4 276/4/4
f 275/1/4 268/1/4 276/1/4
f 259/4/4 275/4/4 279/4/4
f 275/4/4 276/4/4 279/4/4
f 276/4/4 260/4/4 280/4/4
f 279/4/4 276/4/4 280/4/4
f 277/2/4 278/2/4 281/2/4
f 281/2/4 278/2/4 282/2/4
f 281/5/4 282/5/4 283/5/4
f 282/2/4 278/2/4 284/2/4
f 283/5/4 282/5/4 284/5/4
f 283/2/4 284/2/4 285/2/4
f 284/2/4 278/2/4 286/2/4
f 285/2/4 284/2/4 286/2/4
f 287/4/4 288/4/4 291/4/4
f 291/4/4 288/4/4 292/4/4
f 289/4/4 290/4/4 293/4/4
f 293/4/4 290/4/4 294/4/4
f 287/4/4 291/4/4 295/4/4
f 291/1/4 292/1/4 295/1/4
f 292/4/4 288/4/4 296/4/4
f 295/1/4 292/1/4 296/1/4
f 269/5/4 270/5/4 297/5/4
f 265/5/4 269/5/4 297/5/4
f 297/5/4 270/5/4 298/5/4
f 289/4/4 293/4/4 299/4/4
f 293/1/4 294/1/4 299/1/4
f 294/4/4 290/4/4 300/4/4
f 299/1/4 294/1/4 300/1/4
f 261/5/4 265/5/4 301/5/4
f 265/5/4 297/5/4 301/5/4
f 301/5/4 297/5/4 302/5/4
f 289/4/4 299/4/4 303/4/4
f 299/4/4 300/4/4 303/4/4
f 300/4/4 290/4/4 304/4/4
f 303/4/4 300/4/4 304/4/4
f 295/4/4 296/4/4 305/4/4
f 287/4/4 295/4/4 305/4/4
f 296/4/4 288/4/4 306/4/4
f 305/4/4 296/4/4 306/4/4
f 261/5/4 301/5/4 307/5/4
f 307/5/4 301/5/4 308/5/4
f 309/3/4 310/3/4 314/3/4
f 313/3/4 314/3/4 315/3/4
f 314/3/4 310/3/4 316/3/4
f 315/3/4 314/3/4 316/3/4
f 316/3/4 310/3/4 317/3/4
f 311/3/4 312/3/4 318/3/4
f 316/3/4 317/3/4 320/3/4
f 317/3/4 318/3/4 320/3/4
f 320/3/4 318/3/4 321/3/4
f 318/3/4 312/3/4 322/3/4
f 321/3/4 318/3/4 322/3/4
f 320/3/4 321/3/4 323/3/4
f 319/3/4 320/3/4 323/3/4
f 323/3/4 321/3/4 324/3/4
f 324/3/4 321/3/4 325/3/4
f 325/3/4 321/3/4 326/3/4
f 322/3/4 312/3/4 327/3/4
f 327/3/4 312/3/4 328/3/4
f 334/3/5 330/3/5 329/3/5
f 335/3/5 330/3/5 334/3/5
f 338/3/5 332/3/5 331/3/5
f 339/3/5 332/3/5 338/3/5
f 341/4/5 334/4/5 333/4/5
f 341/4/5 335/4/5 334/4/5
f 341/2/5 336/2/5 335/2/5
f 342/5/5 337/5/5 336/5/5
f 342/2/5 336/2/5 341/2/5
f 343/2/5 338/2/5 337/2/5
f 343/5/5 337/5/5 342/5/5
f 344/4/5 340/4/5 339/4/5
f 344/2/5 338/2/5 343/2/5
f 344/4/5 339/4/5 338/4/5
f 346/4/5 341/4/5 333/4/5
f 346/4/5 343/4/5 342/4/5
f 346/4/5 344/4/5 343/4/5
f 346/4/5 342/4/5 341/4/5
f 347/4/5 340/4/5 344/4/5
f 347/4/5 344/4/5 346/4/5
f 349/3/5 346/3/5 345/3/5
f 350/4/5 347/4/5 346/4/5
f 350/3/5 346/3/5 349/3/5
f 351/3/5 348/3/5 347/3/5
f 351/4/5 347/4/5 350/4/5
f 352/3/5 348/3/5 351/3/5
f 353/4/5 351/4/5 350/4/5
f 354/4/5 351/4/5 353/4/5
f 355/4/5 351/4/5 354/4/5
f 356/4/5 351/4/5 355/4/5
f 357/4/5 353/4/5 350/4/5
f 358/4/5 353/4/5 357/4/5
f 359/2/5 354/2/5 353/2/5
f 359/4/5 353/4/5 358/4/5
f 360/5/5 355/5/5 354/5/5
f 360/2/5 354/2/5 359/2/5
f 361/2/5 356/2/5 355/2/5
f 361/5/5 355/5/5 360/5/5
f 362/4/5 351/4/5 356/4/5
f 362/2/5 356/2/5 361/2/5
f 363/4/5 351/4/5 362/4/5
f 364/4/5 351/4/5 363/4/5
f 365/3/5 359/3/5 358/3/5
f 366/3/5 359/3/5 365/3/5
f 367/3/5 363/3/5 362/3/5
f 368/3/5 363/3/5 367/3/5
f 375/3/5 370/3/5 369/3/5
f 376/3/5 370/3/5 375/3/5
f 377/3/5 372/3/5 371/3/5
f 378/3/5 372/3/5 377/3/5
f 379/3/5 374/3/5 373/3/5
f 380/3/5 374/3/5 379/3/5
f 381/3/5 375/3/5 369/3/5
f 382/3/5 375/3/5 381/3/5
f 383/3/5 374/3/5 380/3/5
f 384/3/5 374/3/5 383/3/5
f 389/3/5 386/3/5 385/3/5
f 394/3/5 388/3/5 387/3/5
f 395/3/5 389/3/5 385/3/5
f 395/3/5 390/3/5 389/3/5
f 396/3/5 390/3/5 395/3/5
f 397/3/5 392/3/5 391/3/5
f 398/3/5 392/3/5 397/3/5
f 399/3/5 394/3/5 393/3/5
f 400/3/5 388/3/5 394/3/5
f 400/3/5 394/3/5 399/3/5
f 405/3/5 402/3/5 401/3/5
f 406/3/5 402/3/5 405/3/5
f 407/3/5 404/3/5 403/3/5
f 408/3/5 404/3/5 407/3/5
f 409/3/5 405/3/5 401/3/5
f 410/3/5 405/3/5 409/3/5
f 411/3/5 404/3/5 408/3/5
f 412/3/5 404/3/5 411/3/5
f 417/3/5 414/3/5 413/3/5
f 420/3/5 416/3/5 415/3/5
f 421/3/5 418/3/5 417/3/5
f 421/3/5 417/3/5 413/3/5
f 422/3/5 418/3/5 421/3/5
f 423/3/5 420/3/5 419/3/5
f 424/3/5 416/3/5 420/3/5
f 424/3/5 420/3/5 423/3/5
f 425/3/6 426/3/6 429/3/6
f 429/3/6 426/3/6 430/3/6
f 427/3/6 428/3/6 431/3/6
f 431/3/6 428/3/6 432/3/6
f 425/3/6 429/3/6 433/3/6
f 433/3/6 429/3/6 434/3/6
f 432/3/6 428/3/6 435/3/6
f 435/3/6 428/3/6 436/3/6
f 437/3/6 438/3/6 441/3/6
f 439/3/6 440/3/6 444/3/6
f 441/3/6 442/3/6 445/3/6
f 437/3/6 441/3/6 445/3/6
f 445/3/6 442/3/6 446/3/6
f 443/3/6 444/3/6 447/3/6
f 444/3/6 440/3/6 448/3/6
f 447/3/6 444/3/6 448/3/6
f 449/3/6 450/3/6 451/3/6
f 451/3/6 450/3/6 452/3/6
f 449/3/6 451/3/6 454/3/6
f 452/3/6 450/3/6 455/3/6
f 453/3/6 454/3/6 457/3/6
f 454/3/6 451/3/6 458/3/6
f 457/3/6 454/3/6 458/3/6
f 455/3/6 456/3/6 459/3/6
f 452/3/6 455/3/6 459/3/6
f 459/3/6 456/3/6 460/3/6
f 458/3/6 451/3/6 461/3/6
f 452/3/6 459/3/6 462/3/6
f 458/3/6 461/3/6 463/3/6
f 461/3/6 462/3/6 463/3/6
f 462/3/6 459/3/6 464/3/6
f 463/3/6 462/3/6 464/3/6
f 465/5/6 466/5/6 469/5/6
f 469/5/6 466/5/6 470/5/6
f 467/5/6 468/5/6 471/5/6
f 471/5/6 468/5/6 472/5/6
f 473/5/6 474/5/6 477/5/6
f 477/5/6 474/5/6 478/5/6
f 475/5/6 476/5/6 479/5/6
f 479/5/6 476/5/6 480/5/6
f 481/5/6 482/5/6 483/5/6
f 483/5/6 482/5/6 484/5/6
